HIERARCHY
ROOT Hips
{
 OFFSET 0.000000 0.000000 0.000000
 CHANNELS 6 Xposition Yposition Zposition Yrotation Xrotation Zrotation
 JOINT Chest
 {
  OFFSET 0.000000 14.634200 -0.016200
  CHANNELS 3 Yrotation Xrotation Zrotation
  JOINT Chest2
  {
   OFFSET 0.000000 8.932900 0.033000
   CHANNELS 3 Yrotation Xrotation Zrotation
   JOINT Chest3
   {
    OFFSET 0.000000 8.892300 0.000000
    CHANNELS 3 Yrotation Xrotation Zrotation
    JOINT Chest4
    {
     OFFSET 0.000000 8.883200 0.000000
     CHANNELS 3 Yrotation Xrotation Zrotation
     JOINT Neck
     {
      OFFSET 0.000000 13.173600 0.000000
      CHANNELS 3 Yrotation Xrotation Zrotation
      JOINT Head
      {
       OFFSET 0.000000 8.324600 0.069800
       CHANNELS 3 Yrotation Xrotation Zrotation
       End Site
       {
        OFFSET 0.000000 15.692400 0.036900
       }
      }
     }
     JOINT RightCollar
     {
      OFFSET -2.619200 8.772200 0.000000
      CHANNELS 3 Yrotation Xrotation Zrotation
      JOINT RightShoulder
      {
       OFFSET -12.922000 0.000000 0.000000
       CHANNELS 3 Yrotation Xrotation Zrotation
       JOINT RightElbow
       {
        OFFSET 0.000000 -27.880900 0.000000
        CHANNELS 3 Yrotation Xrotation Zrotation
        JOINT RightWrist
        {
         OFFSET 0.000000 -22.758700 0.008200
         CHANNELS 3 Yrotation Xrotation Zrotation
         End Site
         {
          OFFSET 0.000000 -16.965000 0.000000
         }
        }
       }
      }
     }
     JOINT LeftCollar
     {
      OFFSET 2.619200 8.772200 0.000000
      CHANNELS 3 Yrotation Xrotation Zrotation
      JOINT LeftShoulder
      {
       OFFSET 12.922000 0.000000 0.000000
       CHANNELS 3 Yrotation Xrotation Zrotation
       JOINT LeftElbow
       {
        OFFSET 0.000000 -27.880900 0.000000
        CHANNELS 3 Yrotation Xrotation Zrotation
        JOINT LeftWrist
        {
         OFFSET 0.000000 -22.758700 0.008200
         CHANNELS 3 Yrotation Xrotation Zrotation
         End Site
         {
          OFFSET 0.000000 -16.965000 0.000000
         }
        }
       }
      }
     }
    }
   }
  }
 }
 JOINT RightHip
 {
  OFFSET -12.026800 0.080100 0.008100
  CHANNELS 3 Yrotation Xrotation Zrotation
  JOINT RightKnee
  {
   OFFSET 0.000000 -42.600800 -0.000200
   CHANNELS 3 Yrotation Xrotation Zrotation
   JOINT RightAnkle
   {
    OFFSET 0.000000 -38.219300 0.054300
    CHANNELS 3 Yrotation Xrotation Zrotation
    JOINT RightToe
    {
     OFFSET 0.000000 -9.685800 15.804700
     CHANNELS 3 Yrotation Xrotation Zrotation
     End Site
     {
      OFFSET 0.000000 -1.422300 5.761700
     }
    }
   }
  }
 }
 JOINT LeftHip
 {
  OFFSET 12.026800 0.080100 0.008100
  CHANNELS 3 Yrotation Xrotation Zrotation
  JOINT LeftKnee
  {
   OFFSET 0.000000 -42.600800 -0.000200
   CHANNELS 3 Yrotation Xrotation Zrotation
   JOINT LeftAnkle
   {
    OFFSET 0.000000 -38.219300 0.054300
    CHANNELS 3 Yrotation Xrotation Zrotation
    JOINT LeftToe
    {
     OFFSET 0.000000 -9.685800 15.804700
     CHANNELS 3 Yrotation Xrotation Zrotation
     End Site
     {
      OFFSET 0.000000 -1.422300 5.761700
     }
    }
   }
  }
 }
}
MOTION
Frames: 5
Frame Time: 0.008333
0.000000 90.254400 0.000000 0.000000 -5.767877 0.000000 0.000000 11.653817 0.000000 0.000000 -5.885947 0.000000 0.000000 -0.000000 0.000000 0.000000 -0.000000 0.000000 0.000000 12.528835 0.000000 0.000000 0.711642 0.000000 0.000000 -0.000000 0.000000 0.000000 0.000000 -90.000000 0.000000 -2.309062 0.000000 0.000000 2.309062 0.000000 0.000000 -0.000000 0.000000 0.000000 -0.000000 90.000000 0.000000 -2.309062 0.000000 0.000000 2.309062 0.000000 0.000000 8.520406 0.000000 0.000000 1.905762 0.000000 -0.000000 -4.658285 0.000000 0.000000 -0.000000 0.000000 0.000000 8.520406 0.000000 0.000000 1.905762 0.000000 -0.000000 -4.658285 0.000000 0.000000 -0.000000 0.000000
-5.424861 151.728164 10.182895 170.128410 -20.084936 -0.010358 0.421102 20.838079 0.632661 0.050441 2.703328 0.116011 0.085475 4.419253 0.191007 0.448593 17.837734 0.834017 -1.315717 12.558358 -3.681375 -0.551265 -12.468465 -3.587286 5.597557 -2.532681 -2.226305 20.493878 -29.421918 -9.719904 31.976614 -48.258706 -8.331282 17.564883 3.033426 -43.763220 -10.403092 -0.432449 -1.635666 -0.163102 -28.998362 7.198201 -6.593537 -60.923198 -8.943513 -13.173392 7.945678 10.169416 -0.761672 -53.124416 12.865112 -48.060820 81.190085 -53.658247 -0.908373 -11.176815 5.387408 0.109795 -0.236168 0.069189 20.871783 -48.979161 -22.067802 75.750985 75.547217 85.363212 5.419838 -7.867193 -6.679925 0.158040 -2.210508 1.644455
-6.924773 144.614291 13.349886 170.107913 -20.099642 -0.134160 0.487916 20.849679 0.773471 0.051006 2.704936 0.115207 0.084494 4.420509 0.191529 0.445983 17.840504 0.833963 -1.313397 12.554806 -3.666216 -0.553350 -12.472203 -3.571207 5.604591 -2.532215 -2.225948 20.497991 -29.421916 -9.731391 31.924784 -48.291700 -8.289757 17.552162 3.008706 -43.829482 -10.399472 -0.435275 -1.638921 -0.173333 -29.000374 7.206775 -6.509095 -60.930752 -9.008091 -13.198494 7.955642 10.160215 -0.922894 -53.122129 13.094105 -48.169121 81.196040 -53.765289 -0.859494 -11.271564 5.407620 0.058449 -0.157506 0.035806 20.739259 -49.004721 -21.863120 75.697094 75.551148 85.312780 5.502825 -7.773684 -6.642901 0.107180 0.126464 0.065719
-8.161985 138.755547 15.959041 170.104397 -20.108178 -0.234042 0.528859 20.855981 0.882634 0.050386 2.705700 0.114682 0.084378 4.421223 0.191676 0.442569 17.842273 0.832854 -1.311139 12.553747 -3.646639 -0.562243 -12.481052 -3.521564 5.613950 -2.521009 -2.224550 20.496834 -29.429493 -9.744913 31.892991 -48.315596 -8.261711 17.523502 2.970953 -43.908829 -10.399098 -0.436006 -1.642102 -0.176265 -29.001581 7.212743 -6.461412 -60.933804 -9.040730 -13.209241 7.958912 10.152865 -1.062350 -53.124055 13.275352 -48.271508 81.200140 -53.868519 -0.828860 -11.347500 5.423071 0.023822 -0.085087 0.014594 20.627890 -49.026667 -21.706132 75.654674 75.554442 85.274736 5.552782 -7.701821 -6.617668 0.048366 0.065834 0.029652
-9.063287 134.524077 17.843101 170.114806 -20.112854 -0.281105 0.535549 20.859958 0.929593 0.051316 2.704225 0.115249 0.083651 4.422413 0.190884 0.440658 17.843346 0.831955 -1.310089 12.546092 -3.601797 -0.553666 -12.475736 -3.556953 5.616406 -2.514582 -2.223373 20.495691 -29.432511 -9.752231 31.882171 -48.326773 -8.250493 17.473443 2.915529 -44.001911 -10.401240 -0.432907 -1.641054 -0.179023 -29.004373 7.215242 -6.423854 -60.937082 -9.062767 -13.212267 7.952067 10.138865 -1.136052 -53.128319 13.356929 -48.353303 81.205717 -53.951530 -0.821678 -11.383712 5.430476 0.013308 -0.050889 0.008154 20.571582 -49.034067 -21.638561 75.621985 75.552098 85.239541 5.570906 -7.662766 -6.604143 0.027435 0.035025 0.016817
